<svg version="1.1" id="Layer_1" xmlns="http://www.w3.org/2000/svg" xmlns:xlink="http://www.w3.org/1999/xlink" x="0px" y="0px"
	 width="100%" viewBox="0 0 500 500" enable-background="new 0 0 500 500" xml:space="preserve">
<path fill="#FFFFFF" opacity="1.000000" stroke="none" 
	d="
M295.000000,501.000000 
	C196.666687,501.000000 98.833382,501.000000 1.000052,501.000000 
	C1.000035,334.333405 1.000035,167.666794 1.000018,1.000142 
	C167.666565,1.000095 334.333130,1.000095 500.999756,1.000047 
	C500.999847,167.666519 500.999847,334.333038 500.999939,500.999786 
	C432.500000,501.000000 364.000000,501.000000 295.000000,501.000000 
M258.336884,388.828003 
	C257.809692,387.899231 257.282501,386.970459 256.912567,385.353424 
	C256.983856,384.889008 257.055115,384.424561 257.978180,383.985199 
	C260.243164,383.991119 262.508179,383.997070 264.680969,384.719025 
	C262.910583,387.402039 264.772705,388.744446 266.787933,389.635376 
	C267.523315,389.960510 269.619965,389.179962 269.628632,388.863678 
	C269.698456,386.314392 269.418091,383.755493 269.244690,381.199554 
	C267.756042,381.779266 266.267395,382.358948 264.344330,382.496124 
	C263.003265,377.598602 260.644531,383.679047 258.693756,381.281982 
	C257.794769,381.495605 256.895813,381.709259 255.300705,381.829498 
	C251.885818,380.528900 251.885818,380.528900 250.846222,383.653900 
	C251.654099,383.252930 252.245804,382.959229 253.690933,382.241974 
	C252.249054,385.233063 251.261185,387.282349 250.273315,389.331635 
	C250.745682,389.743103 251.218048,390.154541 251.690414,390.565979 
	C253.115555,389.401428 254.540695,388.236877 255.986053,387.819580 
	C256.965179,388.536621 257.944336,389.253632 259.577789,389.938049 
	C260.453369,389.510834 261.328949,389.083618 262.204529,388.656403 
	C262.099701,388.403107 261.994843,388.149811 261.889984,387.896545 
	C260.940002,388.215088 259.989990,388.533630 258.336884,388.828003 
M202.607742,377.969421 
	C203.093216,377.965637 203.578690,377.961853 204.715118,377.816437 
	C207.331329,377.297638 209.947540,376.778839 212.563766,376.260040 
	C212.547089,376.146454 212.530411,376.032898 212.513733,375.919312 
	C210.993576,376.041534 209.473434,376.163757 207.755371,376.301880 
	C207.755371,373.533997 207.755371,371.130554 207.755371,368.776886 
	C206.887451,369.215485 205.904114,369.712372 204.619202,369.471222 
	C203.448334,369.270142 202.277466,369.069061 200.295120,368.728607 
	C200.920929,372.358521 201.400757,375.141754 202.607742,377.969421 
M272.183044,375.962982 
	C271.715271,376.099731 271.247467,376.236511 269.635590,376.707764 
	C271.503571,376.919403 272.130493,376.990448 272.974762,377.531586 
	C273.282166,377.654083 273.589600,377.776581 274.627869,377.937683 
	C275.115234,377.924927 275.602570,377.912140 276.563080,377.897644 
	C276.704315,375.942200 276.767273,373.977173 277.005646,372.033661 
	C277.338806,369.317505 275.947479,368.535645 272.660614,368.391632 
	C269.776306,368.603485 266.892029,368.815338 263.313843,368.982391 
	C260.372131,368.982391 257.430389,368.982391 254.488678,368.982391 
	C258.919434,368.758392 258.049744,372.006592 257.884064,374.487152 
	C257.819336,375.456299 256.729034,376.356964 256.079559,377.328125 
	C257.740570,377.328125 260.128784,377.328125 262.179321,377.328125 
	C262.805420,374.798340 263.404388,372.378113 263.974701,370.852142 
	C264.129944,373.192871 264.285187,375.533630 264.440430,377.874359 
	C265.065155,377.876831 265.689880,377.879303 266.314606,377.881805 
	C266.697266,375.335968 267.079926,372.790161 267.554840,369.630676 
	C269.660797,371.418793 271.210266,372.734406 272.835846,374.678558 
	C272.809692,375.098785 272.783539,375.518982 272.183044,375.962982 
M292.482819,374.234528 
	C294.333008,373.898499 296.183197,373.562439 297.618561,373.301758 
	C292.281433,368.290741 285.407440,369.902649 279.031281,369.203979 
	C280.696533,371.938965 282.376678,374.698425 284.077576,377.492004 
	C284.427795,376.901550 284.892548,376.118042 285.431976,375.208588 
	C285.851746,376.215851 286.194214,377.037628 286.235809,377.137451 
	C290.711792,377.137451 294.668945,377.137451 299.104340,377.137451 
	C295.903229,376.506134 293.254150,375.983704 291.228699,374.833160 
	C291.435364,374.622589 291.641998,374.412018 292.482819,374.234528 
M156.415436,201.495377 
	C148.930206,201.085266 141.444992,200.675171 133.037689,200.133926 
	C127.357864,200.171356 121.678040,200.208786 115.501579,200.149994 
	C115.388847,200.432999 115.276108,200.716003 115.002213,201.924103 
	C115.002213,227.157806 115.002213,252.391510 115.002213,277.745514 
	C118.749985,277.745514 121.989662,277.745514 125.854446,277.745514 
	C125.854446,269.288818 125.854446,261.068848 125.854446,252.869751 
	C129.288132,252.646545 132.096252,252.464020 135.803101,252.605682 
	C143.236603,251.888016 150.670105,251.170364 158.812363,250.253647 
	C167.384445,246.579971 172.113586,239.933670 173.966995,230.946518 
	C174.191086,229.859909 175.306839,228.957184 176.088547,228.677551 
	C178.468292,232.124634 180.848022,235.571701 183.259399,239.064606 
	C174.966187,246.272934 172.481750,254.626236 176.042252,264.072144 
	C179.313934,272.751770 187.294159,277.995789 197.926071,277.982147 
	C207.510178,277.982147 217.094269,277.982147 226.671082,277.982147 
	C226.671082,274.587250 226.671082,271.841553 226.671082,268.866272 
	C216.930878,268.866272 207.489227,268.866272 197.360291,268.546112 
	C195.101532,267.869049 192.480927,267.703735 190.655914,266.413269 
	C186.235733,263.287781 184.367920,258.792969 185.544205,253.314697 
	C186.873596,247.123383 191.221069,244.224640 197.928497,243.047394 
	C206.147522,243.047394 214.366562,243.047394 222.588409,243.047394 
	C222.588409,239.628357 222.588409,236.904312 222.588409,233.937790 
	C213.854202,233.937790 205.438461,233.937790 196.404312,233.602585 
	C187.963120,231.454376 184.143158,225.860550 186.005630,218.375076 
	C187.368652,212.896820 191.394653,210.327621 200.861908,209.725601 
	C209.457626,209.725601 218.053345,209.725601 226.663391,209.725601 
	C226.663391,206.216690 226.663391,203.317703 226.663391,200.267578 
	C217.539093,200.267578 208.755295,200.267578 199.102646,200.129776 
	C185.101593,200.079269 176.243500,207.372192 174.244476,219.995102 
	C170.713379,211.868744 166.433487,204.458664 156.415436,201.495377 
M368.144348,198.964798 
	C355.702362,199.312302 347.254547,207.597092 347.076019,219.997772 
	C346.899414,232.264679 347.245728,244.542450 346.881409,256.801147 
	C346.779755,260.221741 344.973785,263.591736 343.279175,267.235687 
	C337.217712,271.312744 330.615021,270.125854 327.764771,264.085022 
	C326.754883,261.944611 326.609009,259.264069 326.566986,256.821564 
	C326.343658,243.839233 326.848572,230.817184 326.008728,217.879837 
	C325.046265,203.054428 310.885132,195.026581 296.168976,200.785690 
	C287.253723,204.973938 283.909607,212.332413 283.969666,221.794693 
	C284.059479,235.943344 283.992188,250.093018 283.991791,264.242249 
	C283.991638,268.687988 283.991760,273.133728 283.991760,277.766815 
	C287.780365,277.766815 291.023163,277.766815 294.837158,277.766815 
	C294.837158,275.746674 294.837128,273.965698 294.837158,272.184692 
	C294.837616,255.205612 294.932648,238.225647 294.774353,221.248047 
	C294.732971,216.812515 295.788269,213.073273 299.686432,209.800217 
	C308.888489,206.139648 315.781281,210.583069 315.873413,220.411835 
	C315.995026,233.389130 315.678375,246.374924 316.019928,259.344696 
	C316.444397,275.463257 333.496643,284.510254 348.098145,276.086761 
	C355.063354,271.855164 357.734314,265.279144 357.827148,257.533081 
	C357.972839,245.377762 357.855896,233.219421 357.883301,221.062454 
	C357.902313,212.628250 360.623962,209.453674 369.632385,208.273712 
	C376.576813,210.467819 378.878479,213.532288 378.901306,221.079727 
	C378.953064,238.205902 378.918549,255.332321 378.919098,272.458649 
	C378.919159,274.211487 378.919128,275.964294 378.919128,277.646820 
	C382.885040,277.646820 386.110565,277.646820 389.550537,277.646820 
	C389.550537,257.523773 390.061096,237.749252 389.357178,218.018082 
	C388.941345,206.362274 380.054962,199.010773 368.144348,198.964798 
M250.917236,243.055267 
	C259.170197,243.055267 267.423157,243.055267 275.775726,243.055267 
	C275.775726,239.690460 275.775726,236.859436 275.775726,233.960251 
	C267.225281,233.960251 259.113190,233.960251 250.425003,233.727478 
	C244.779816,233.376556 239.871811,228.855759 239.094818,223.291153 
	C238.350067,217.957169 241.551773,212.280914 246.599686,210.529968 
	C248.598007,209.836838 250.827576,209.810349 253.867950,209.723724 
	C262.630798,209.723724 271.393677,209.723724 280.255890,209.723724 
	C280.255890,206.197662 280.255890,203.297974 280.255890,200.271011 
	C270.919983,200.271011 261.947327,200.271011 252.119919,200.131439 
	C242.166718,199.779480 234.427780,203.664764 230.267487,212.835724 
	C225.662018,222.988007 228.786972,231.585480 237.131668,238.482895 
	C228.021149,247.379791 225.832809,255.566620 229.911057,264.986725 
	C233.546829,273.384796 241.637955,278.316315 251.927231,277.975555 
	C261.316467,277.975555 270.705688,277.975555 279.858215,277.975555 
	C279.858215,274.400818 279.858215,271.684204 279.858215,268.881958 
	C269.933990,268.881958 260.468262,268.881958 250.229584,268.837952 
	C244.414047,268.283295 239.502777,263.458435 238.900314,257.707977 
	C238.135193,250.404984 241.459854,245.976257 250.917236,243.055267 
M248.511520,377.431549 
	C248.836609,377.376892 249.169464,377.347046 249.481262,377.249786 
	C249.557358,377.226044 249.628540,376.962799 249.593765,376.840485 
	C248.804779,374.066040 248.000717,371.295868 247.292252,368.845764 
	C244.581192,368.845764 241.145660,368.845764 237.547409,368.845764 
	C237.044571,372.022614 236.611694,374.757294 236.144943,377.706055 
	C239.161346,377.324707 241.796921,376.991516 244.135483,376.695862 
	C244.438416,373.715881 244.669968,371.437988 244.901535,369.160126 
	C245.101837,369.207428 245.302155,369.254761 245.502472,369.302063 
	C246.299911,372.033691 247.097351,374.765289 248.511520,377.431549 
M238.770844,380.083618 
	C236.543625,380.573700 232.593079,380.733124 232.423309,381.617981 
	C231.974854,383.955200 232.449738,387.241913 233.941071,388.922577 
	C235.036880,390.157562 238.318161,389.453339 240.625504,389.613281 
	C240.652939,389.243347 240.680359,388.873383 240.707779,388.503448 
	C239.772476,388.154694 238.837173,387.805939 237.901855,387.457153 
	C238.107056,387.114655 238.312241,386.772125 238.517426,386.429596 
	C240.311340,387.551941 242.105255,388.674286 244.542099,390.198853 
	C244.780197,386.584106 244.986526,383.451904 245.195526,380.278931 
	C243.104965,380.278931 241.325409,380.278931 238.770844,380.083618 
M217.743607,375.401672 
	C217.743607,373.700592 217.743607,371.999481 217.743607,370.298401 
	C217.488373,370.324951 217.233124,370.351501 216.977890,370.378052 
	C217.410095,372.545227 217.842300,374.712402 218.274521,376.879578 
	C218.443237,376.779144 218.611954,376.678680 218.780670,376.578217 
	C218.519852,376.373108 218.259033,376.167999 217.743607,375.401672 
M215.501144,377.482056 
	C215.501144,377.482056 215.523499,377.443390 215.501144,377.482056 
z"/>
<path fill="#61CA6E" opacity="1.000000" stroke="none" 
	d="
M347.473572,276.284668 
	C333.496643,284.510254 316.444397,275.463257 316.019928,259.344696 
	C315.678375,246.374924 315.995026,233.389130 315.873413,220.411835 
	C315.781281,210.583069 308.888489,206.139648 299.044250,209.614563 
	C297.890381,206.482956 297.378632,203.537018 296.866913,200.591080 
	C310.885132,195.026581 325.046265,203.054428 326.008728,217.879837 
	C326.848572,230.817184 326.343658,243.839233 326.566986,256.821564 
	C326.609009,259.264069 326.754883,261.944611 327.764771,264.085022 
	C330.615021,270.125854 337.217712,271.312744 344.005432,267.198181 
	C345.153198,268.602692 345.565857,270.047394 345.998688,271.486053 
	C346.480743,273.088470 346.981140,274.685364 347.473572,276.284668 
z"/>
<path fill="#27AB9B" opacity="1.000000" stroke="none" 
	d="
M199.946030,209.479004 
	C191.394653,210.327621 187.368652,212.896820 186.005630,218.375076 
	C184.143158,225.860550 187.963120,231.454376 196.707092,234.221832 
	C197.006210,237.533173 197.002533,240.225281 196.998856,242.917389 
	C191.221069,244.224640 186.873596,247.123383 185.544205,253.314697 
	C184.367920,258.792969 186.235733,263.287781 190.655914,266.413269 
	C192.480927,267.703735 195.101532,267.869049 197.690399,269.138916 
	C197.679535,272.435303 197.338577,275.138885 196.997620,277.842468 
	C187.294159,277.995789 179.313934,272.751770 176.042252,264.072144 
	C172.481750,254.626236 174.966187,246.272934 183.259399,239.064606 
	C180.848022,235.571701 178.468292,232.124634 176.032928,227.922424 
	C175.649277,224.771271 175.321243,222.375244 174.993225,219.979202 
	C176.243500,207.372192 185.101593,200.079269 199.545502,200.622482 
	C199.974243,203.903122 199.960129,206.691071 199.946030,209.479004 
z"/>
<path fill="#3FB78A" opacity="1.000000" stroke="none" 
	d="
M252.951843,209.480316 
	C250.827576,209.810349 248.598007,209.836838 246.599686,210.529968 
	C241.551773,212.280914 238.350067,217.957169 239.094818,223.291153 
	C239.871811,228.855759 244.779816,233.376556 250.712006,234.258987 
	C250.660461,237.508484 250.321915,240.226486 249.983368,242.944473 
	C241.459854,245.976257 238.135193,250.404984 238.900314,257.707977 
	C239.502777,263.458435 244.414047,268.283295 250.615479,269.314240 
	C251.000381,272.473480 250.999390,275.156433 250.998383,277.839386 
	C241.637955,278.316315 233.546829,273.384796 229.911057,264.986725 
	C225.832809,255.566620 228.021149,247.379791 237.131668,238.482895 
	C228.786972,231.585480 225.662018,222.988007 230.267487,212.835724 
	C234.427780,203.664764 242.166718,199.779480 252.554672,200.624878 
	C252.976898,203.905655 252.964371,206.692993 252.951843,209.480316 
z"/>
<path fill="#079BAD" opacity="1.000000" stroke="none" 
	d="
M134.904373,252.281494 
	C132.096252,252.464020 129.288132,252.646545 125.854446,252.869751 
	C125.854446,261.068848 125.854446,269.288818 125.854446,277.745514 
	C121.989662,277.745514 118.749985,277.745514 115.002213,277.745514 
	C115.002213,252.391510 115.002213,227.157806 115.258881,201.380768 
	C115.745346,200.696609 115.906235,200.499542 115.998215,200.246216 
	C121.678040,200.208786 127.357864,200.171356 133.511902,200.648102 
	C134.023605,203.926163 134.061111,206.690033 133.651810,209.520905 
	C130.808395,209.587921 128.411789,209.587921 126.136139,209.587921 
	C126.136139,221.237961 126.136139,232.060974 126.136139,243.202484 
	C129.358582,243.202484 132.165298,243.202484 134.983765,243.627396 
	C134.965118,246.795364 134.934753,249.538437 134.904373,252.281494 
z"/>
<path fill="#80D95F" opacity="1.000000" stroke="none" 
	d="
M368.996643,199.096466 
	C380.054962,199.010773 388.941345,206.362274 389.357178,218.018082 
	C390.061096,237.749252 389.550537,257.523773 389.550537,277.646820 
	C386.110565,277.646820 382.885040,277.646820 378.919128,277.646820 
	C378.919128,275.964294 378.919159,274.211487 378.919098,272.458649 
	C378.918549,255.332321 378.953064,238.205902 378.901306,221.079727 
	C378.878479,213.532288 376.576813,210.467819 369.319275,207.669342 
	C369.002991,204.408798 368.999817,201.752625 368.996643,199.096466 
z"/>
<path fill="#72D266" opacity="1.000000" stroke="none" 
	d="
M368.570496,199.030640 
	C368.999817,201.752625 369.002991,204.408798 369.010132,207.508698 
	C360.623962,209.453674 357.902313,212.628250 357.883301,221.062454 
	C357.855896,233.219421 357.972839,245.377762 357.827148,257.533081 
	C357.734314,265.279144 355.063354,271.855164 347.785858,276.185730 
	C346.981140,274.685364 346.480743,273.088470 345.998688,271.486053 
	C345.565857,270.047394 345.153198,268.602692 344.340698,267.072784 
	C344.973785,263.591736 346.779755,260.221741 346.881409,256.801147 
	C347.245728,244.542450 346.899414,232.264679 347.076019,219.997772 
	C347.254547,207.597092 355.702362,199.312302 368.570496,199.030640 
z"/>
<path fill="#57C47B" opacity="1.000000" stroke="none" 
	d="
M296.517944,200.688385 
	C297.378632,203.537018 297.890381,206.482956 298.681183,209.700516 
	C295.788269,213.073273 294.732971,216.812515 294.774353,221.248047 
	C294.932648,238.225647 294.837616,255.205612 294.837158,272.184692 
	C294.837128,273.965698 294.837158,275.746674 294.837158,277.766815 
	C291.023163,277.766815 287.780365,277.766815 283.991760,277.766815 
	C283.991760,273.133728 283.991638,268.687988 283.991791,264.242249 
	C283.992188,250.093018 284.059479,235.943344 283.969666,221.794693 
	C283.909607,212.332413 287.253723,204.973938 296.517944,200.688385 
z"/>
<path fill="#20A7A1" opacity="1.000000" stroke="none" 
	d="
M174.618835,219.987152 
	C175.321243,222.375244 175.649277,224.771271 175.993317,227.568268 
	C175.306839,228.957184 174.191086,229.859909 173.966995,230.946518 
	C172.113586,239.933670 167.384445,246.579971 158.427521,249.893738 
	C157.699295,246.406784 157.355927,243.279739 157.255219,239.904327 
	C166.245270,231.078018 165.570419,219.230988 155.989960,211.762421 
	C156.366699,208.221298 156.686157,205.097000 157.005615,201.972717 
	C166.433487,204.458664 170.713379,211.868744 174.618835,219.987152 
z"/>
<path fill="#53C087" opacity="1.000000" stroke="none" 
	d="
M253.409897,209.602020 
	C252.964371,206.692993 252.976898,203.905655 252.982056,200.694672 
	C261.947327,200.271011 270.919983,200.271011 280.255890,200.271011 
	C280.255890,203.297974 280.255890,206.197662 280.255890,209.723724 
	C271.393677,209.723724 262.630798,209.723724 253.409897,209.602020 
z"/>
<path fill="#3EB597" opacity="1.000000" stroke="none" 
	d="
M200.403961,209.602295 
	C199.960129,206.691071 199.974243,203.903122 199.979919,200.691376 
	C208.755295,200.267578 217.539093,200.267578 226.663391,200.267578 
	C226.663391,203.317703 226.663391,206.216690 226.663391,209.725601 
	C218.053345,209.725601 209.457626,209.725601 200.403961,209.602295 
z"/>
<path fill="#30B091" opacity="1.000000" stroke="none" 
	d="
M197.461853,277.912292 
	C197.338577,275.138885 197.679535,272.435303 198.034042,269.299011 
	C207.489227,268.866272 216.930878,268.866272 226.671082,268.866272 
	C226.671082,271.841553 226.671082,274.587250 226.671082,277.982147 
	C217.094269,277.982147 207.510178,277.982147 197.461853,277.912292 
z"/>
<path fill="#47BC7F" opacity="1.000000" stroke="none" 
	d="
M251.462799,277.907471 
	C250.999390,275.156433 251.000381,272.473480 251.001953,269.336243 
	C260.468262,268.881958 269.933990,268.881958 279.858215,268.881958 
	C279.858215,271.684204 279.858215,274.400818 279.858215,277.975555 
	C270.705688,277.975555 261.316467,277.975555 251.462799,277.907471 
z"/>
<path fill="#30B091" opacity="1.000000" stroke="none" 
	d="
M197.463684,242.982391 
	C197.002533,240.225281 197.006210,237.533173 197.016296,234.389435 
	C205.438461,233.937790 213.854202,233.937790 222.588409,233.937790 
	C222.588409,236.904312 222.588409,239.628357 222.588409,243.047394 
	C214.366562,243.047394 206.147522,243.047394 197.463684,242.982391 
z"/>
<path fill="#28A9AF" opacity="1.000000" stroke="none" 
	d="
M157.012573,240.152710 
	C157.355927,243.279739 157.699295,246.406784 158.073135,249.993256 
	C150.670105,251.170364 143.236603,251.888016 135.353729,252.443588 
	C134.934753,249.538437 134.965118,246.795364 135.445251,243.541473 
	C143.028503,242.763412 150.379974,244.095627 157.012573,240.152710 
z"/>
<path fill="#28A9AF" opacity="1.000000" stroke="none" 
	d="
M156.710526,201.734039 
	C156.686157,205.097000 156.366699,208.221298 155.620132,211.630127 
	C154.759766,211.688705 154.341660,211.303650 153.890945,211.260651 
	C147.296051,210.631592 140.696823,210.048187 134.098618,209.453903 
	C134.061111,206.690033 134.023605,203.926163 133.972931,200.713684 
	C141.444992,200.675171 148.930206,201.085266 156.710526,201.734039 
z"/>
<path fill="#47BC7F" opacity="1.000000" stroke="none" 
	d="
M250.450302,242.999878 
	C250.321915,240.226486 250.660461,237.508484 251.000061,234.375366 
	C259.113190,233.960251 267.225281,233.960251 275.775726,233.960251 
	C275.775726,236.859436 275.775726,239.690460 275.775726,243.055267 
	C267.423157,243.055267 259.170197,243.055267 250.450302,242.999878 
z"/>
<path fill="#72D266" opacity="1.000000" stroke="none" 
	d="
M290.605103,375.461243 
	C293.254150,375.983704 295.903229,376.506134 299.104340,377.137451 
	C294.668945,377.137451 290.711792,377.137451 286.235809,377.137451 
	C286.194214,377.037628 285.851746,376.215851 285.431976,375.208588 
	C284.892548,376.118042 284.427795,376.901550 284.077576,377.492004 
	C282.376678,374.698425 280.696533,371.938965 279.031281,369.203979 
	C285.407440,369.902649 292.281433,368.290741 297.618561,373.301758 
	C296.183197,373.562439 294.333008,373.898499 292.226379,373.918915 
	C291.212189,372.920746 290.454437,372.238220 289.696686,371.555695 
	C289.125610,372.195068 288.554565,372.834442 287.983490,373.473816 
	C288.857361,374.136292 289.731232,374.798767 290.605103,375.461243 
z"/>
<path fill="#3EB597" opacity="1.000000" stroke="none" 
	d="
M248.203156,377.464233 
	C247.097351,374.765289 246.299911,372.033691 245.502472,369.302063 
	C245.302155,369.254761 245.101837,369.207428 244.901535,369.160126 
	C244.669968,371.437988 244.438416,373.715881 244.135483,376.695862 
	C241.796921,376.991516 239.161346,377.324707 236.144943,377.706055 
	C236.611694,374.757294 237.044571,372.022614 237.547409,368.845764 
	C241.145660,368.845764 244.581192,368.845764 247.292252,368.845764 
	C248.000717,371.295868 248.804779,374.066040 249.593765,376.840485 
	C249.628540,376.962799 249.557358,377.226044 249.481262,377.249786 
	C249.169464,377.347046 248.836609,377.376892 248.203156,377.464233 
M242.500153,371.403748 
	C241.893600,371.507050 241.287048,371.610321 240.680496,371.713593 
	C240.940735,372.439667 241.200974,373.165710 241.461212,373.891785 
	C241.911392,373.404358 242.361572,372.916962 242.500153,371.403748 
M241.251312,376.478302 
	C241.449326,376.564362 241.647354,376.650421 241.845367,376.736481 
	C241.792709,376.516693 241.740067,376.296936 241.251312,376.478302 
z"/>
<path fill="#C3E7EA" opacity="1.000000" stroke="none" 
	d="
M239.158356,380.181274 
	C241.325409,380.278931 243.104965,380.278931 245.195526,380.278931 
	C244.986526,383.451904 244.780197,386.584106 244.542099,390.198853 
	C242.105255,388.674286 240.311340,387.551941 238.517426,386.429596 
	C238.312241,386.772125 238.107056,387.114655 237.901855,387.457153 
	C238.837173,387.805939 239.772476,388.154694 240.707779,388.503448 
	C240.680359,388.873383 240.652939,389.243347 240.625504,389.613281 
	C238.318161,389.453339 235.036880,390.157562 233.941071,388.922577 
	C232.449738,387.241913 231.974854,383.955200 232.423309,381.617981 
	C232.593079,380.733124 236.543625,380.573700 239.158356,380.181274 
M235.672287,386.774750 
	C235.302521,386.728760 234.932755,386.682800 234.562988,386.636810 
	C234.559799,386.897736 234.556625,387.158630 234.553436,387.419556 
	C234.920105,387.376221 235.286758,387.332886 235.672287,386.774750 
M241.203018,383.804291 
	C241.326797,383.983124 241.450577,384.161957 241.574387,384.340790 
	C241.548721,384.083252 241.523071,383.825684 241.203018,383.804291 
z"/>
<path fill="#53C087" opacity="1.000000" stroke="none" 
	d="
M264.003357,369.957886 
	C263.404388,372.378113 262.805420,374.798340 262.179321,377.328125 
	C260.128784,377.328125 257.740570,377.328125 256.079559,377.328125 
	C256.729034,376.356964 257.819336,375.456299 257.884064,374.487152 
	C258.049744,372.006592 258.919434,368.758392 254.488678,368.982391 
	C257.430389,368.982391 260.372131,368.982391 263.643463,369.237274 
	C263.973083,369.492157 264.003357,369.957886 264.003357,369.957886 
z"/>
<path fill="#C3E7EA" opacity="1.000000" stroke="none" 
	d="
M263.989014,370.405029 
	C264.003357,369.957886 263.973083,369.492157 263.990417,369.259644 
	C266.892029,368.815338 269.776306,368.603485 272.923676,368.887207 
	C273.044403,370.938507 272.902100,372.494263 272.759766,374.050018 
	C271.210266,372.734406 269.660797,371.418793 267.554840,369.630676 
	C267.079926,372.790161 266.697266,375.335968 266.314606,377.881805 
	C265.689880,377.879303 265.065155,377.876831 264.440430,377.874359 
	C264.285187,375.533630 264.129944,373.192871 263.989014,370.405029 
z"/>
<path fill="#80D95F" opacity="1.000000" stroke="none" 
	d="
M264.778748,382.938660 
	C266.267395,382.358948 267.756042,381.779266 269.244690,381.199554 
	C269.418091,383.755493 269.698456,386.314392 269.628632,388.863678 
	C269.619965,389.179962 267.523315,389.960510 266.787933,389.635376 
	C264.772705,388.744446 262.910583,387.402039 264.766541,384.095123 
	C264.827667,383.293671 264.803192,383.116150 264.778748,382.938660 
z"/>
<path fill="#28A9AF" opacity="1.000000" stroke="none" 
	d="
M204.920776,370.209290 
	C205.904114,369.712372 206.887451,369.215485 207.755371,368.776886 
	C207.755371,371.130554 207.755371,373.533997 207.755371,376.301880 
	C209.473434,376.163757 210.993576,376.041534 212.513733,375.919312 
	C212.530411,376.032898 212.547089,376.146454 212.563766,376.260040 
	C209.947540,376.778839 207.331329,377.297638 204.322754,377.520691 
	C203.912872,376.267426 203.895386,375.309906 203.889984,374.138947 
	C203.902100,373.925537 204.034668,373.519073 203.937592,373.143005 
	C203.894180,372.513580 203.947830,372.260284 204.191238,371.900879 
	C204.560913,371.266327 204.740845,370.737793 204.920776,370.209290 
z"/>
<path fill="#53C087" opacity="1.000000" stroke="none" 
	d="
M257.126373,383.960144 
	C257.055115,384.424561 256.983856,384.889008 256.653320,385.827271 
	C256.182770,386.520111 256.040039,386.777191 255.965836,387.072327 
	C254.540695,388.236877 253.115555,389.401428 251.690414,390.565979 
	C251.218048,390.154541 250.745682,389.743103 250.273315,389.331635 
	C251.261185,387.282349 252.249054,385.233063 253.690933,382.241974 
	C252.245804,382.959229 251.654099,383.252930 250.846222,383.653900 
	C251.885818,380.528900 251.885818,380.528900 255.659241,382.088440 
	C256.263000,382.906311 256.508240,383.465240 256.846527,384.007080 
	C256.939575,383.989990 257.126373,383.960144 257.126373,383.960144 
z"/>
<path fill="#61CA6E" opacity="1.000000" stroke="none" 
	d="
M272.797821,374.364288 
	C272.902100,372.494263 273.044403,370.938507 273.373871,369.050354 
	C275.947479,368.535645 277.338806,369.317505 277.005646,372.033661 
	C276.767273,373.977173 276.704315,375.942200 276.284454,377.552063 
	C275.668091,376.268005 275.330383,375.329559 274.992676,374.391144 
	C274.748169,374.444244 274.503632,374.497345 274.259125,374.550446 
	C274.138397,375.666656 274.017700,376.782867 273.896973,377.899078 
	C273.589600,377.776581 273.282166,377.654083 272.932556,377.016083 
	C272.846008,376.313446 272.801666,376.126312 272.757385,375.939209 
	C272.783539,375.518982 272.809692,375.098785 272.797821,374.364288 
M275.695892,372.135071 
	C275.546051,371.558228 275.396179,370.981354 275.246338,370.404541 
	C274.881531,370.603302 274.516693,370.802063 274.151855,371.000793 
	C274.510864,371.530212 274.869843,372.059631 275.695892,372.135071 
z"/>
<path fill="#FEFFFE" opacity="1.000000" stroke="none" 
	d="
M264.561523,382.717407 
	C264.803192,383.116150 264.827667,383.293671 264.812653,383.737122 
	C262.508179,383.997070 260.243164,383.991119 257.552277,383.972656 
	C257.126373,383.960144 256.939575,383.989990 256.941528,383.671326 
	C257.630646,382.902130 258.317810,382.451660 259.005005,382.001160 
	C260.644531,383.679047 263.003265,377.598602 264.561523,382.717407 
z"/>
<path fill="#079BAD" opacity="1.000000" stroke="none" 
	d="
M204.769989,369.840271 
	C204.740845,370.737793 204.560913,371.266327 204.130096,371.570679 
	C203.328201,371.134003 202.777161,370.921448 202.226135,370.708923 
	C202.828964,371.645660 203.431808,372.582367 204.034668,373.519073 
	C204.034668,373.519073 203.902100,373.925537 203.546661,374.132324 
	C202.754333,375.534393 202.317459,376.729675 201.880585,377.924988 
	C201.400757,375.141754 200.920929,372.358521 200.295120,368.728607 
	C202.277466,369.069061 203.448334,369.270142 204.769989,369.840271 
z"/>
<path fill="#28A9AF" opacity="1.000000" stroke="none" 
	d="
M217.870911,375.682312 
	C218.259033,376.167999 218.519852,376.373108 218.780670,376.578217 
	C218.611954,376.678680 218.443237,376.779144 218.274521,376.879578 
	C217.842300,374.712402 217.410095,372.545227 216.977890,370.378052 
	C217.233124,370.351501 217.488373,370.324951 217.743607,370.298401 
	C217.743607,371.999481 217.743607,373.700592 217.870911,375.682312 
z"/>
<path fill="#C3E7EA" opacity="1.000000" stroke="none" 
	d="
M202.244171,377.947205 
	C202.317459,376.729675 202.754333,375.534393 203.534546,374.345703 
	C203.895386,375.309906 203.912872,376.267426 203.997269,377.591522 
	C203.578690,377.961853 203.093216,377.965637 202.244171,377.947205 
z"/>
<path fill="#C3E7EA" opacity="1.000000" stroke="none" 
	d="
M274.262421,377.918396 
	C274.017700,376.782867 274.138397,375.666656 274.259125,374.550446 
	C274.503632,374.497345 274.748169,374.444244 274.992676,374.391144 
	C275.330383,375.329559 275.668091,376.268005 276.047882,377.552917 
	C275.602570,377.912140 275.115234,377.924927 274.262421,377.918396 
z"/>
<path fill="#FEFFFE" opacity="1.000000" stroke="none" 
	d="
M259.040009,388.852173 
	C259.989990,388.533630 260.940002,388.215088 261.889984,387.896545 
	C261.994843,388.149811 262.099701,388.403107 262.204529,388.656403 
	C261.328949,389.083618 260.453369,389.510834 259.302917,389.677185 
	C259.032043,389.228271 259.036011,389.040222 259.040009,388.852173 
z"/>
<path fill="#57C47B" opacity="1.000000" stroke="none" 
	d="
M258.688446,388.840088 
	C259.036011,389.040222 259.032043,389.228271 258.975769,389.693481 
	C257.944336,389.253632 256.965179,388.536621 255.975952,387.445953 
	C256.040039,386.777191 256.182770,386.520111 256.574677,386.171387 
	C257.282501,386.970459 257.809692,387.899231 258.688446,388.840088 
z"/>
<path fill="#57C47B" opacity="1.000000" stroke="none" 
	d="
M258.849365,381.641571 
	C258.317810,382.451660 257.630646,382.902130 256.848450,383.688416 
	C256.508240,383.465240 256.263000,382.906311 256.007294,382.135132 
	C256.895813,381.709259 257.794769,381.495605 258.849365,381.641571 
z"/>
<path fill="#C3E7EA" opacity="1.000000" stroke="none" 
	d="
M272.470215,375.951111 
	C272.801666,376.126312 272.846008,376.313446 272.823914,376.781036 
	C272.130493,376.990448 271.503571,376.919403 269.635590,376.707764 
	C271.247467,376.236511 271.715271,376.099731 272.470215,375.951111 
z"/>
<path fill="#28A9AF" opacity="1.000000" stroke="none" 
	d="
M215.512329,377.462708 
	C215.523499,377.443390 215.501144,377.482056 215.512329,377.462708 
z"/>
<path fill="#28A9AF" opacity="1.000000" stroke="none" 
	d="
M115.749893,200.198105 
	C115.906235,200.499542 115.745346,200.696609 115.339462,200.918213 
	C115.276108,200.716003 115.388847,200.432999 115.749893,200.198105 
z"/>
<path fill="#FEFFFE" opacity="1.000000" stroke="none" 
	d="
M133.651810,209.520905 
	C140.696823,210.048187 147.296051,210.631592 153.890945,211.260651 
	C154.341660,211.303650 154.759766,211.688705 155.562866,212.046967 
	C165.570419,219.230988 166.245270,231.078018 157.255219,239.904327 
	C150.379974,244.095627 143.028503,242.763412 135.433502,243.116547 
	C132.165298,243.202484 129.358582,243.202484 126.136139,243.202484 
	C126.136139,232.060974 126.136139,221.237961 126.136139,209.587921 
	C128.411789,209.587921 130.808395,209.587921 133.651810,209.520905 
z"/>
<path fill="#FFFFFF" opacity="1.000000" stroke="none" 
	d="
M290.916901,375.147217 
	C289.731232,374.798767 288.857361,374.136292 287.983490,373.473816 
	C288.554565,372.834442 289.125610,372.195068 289.696686,371.555695 
	C290.454437,372.238220 291.212189,372.920746 291.909271,373.902374 
	C291.641998,374.412018 291.435364,374.622589 290.916901,375.147217 
z"/>
<path fill="#FFFFFF" opacity="1.000000" stroke="none" 
	d="
M242.655960,371.916626 
	C242.361572,372.916962 241.911392,373.404358 241.461212,373.891785 
	C241.200974,373.165710 240.940735,372.439667 240.680496,371.713593 
	C241.287048,371.610321 241.893600,371.507050 242.655960,371.916626 
z"/>
<path fill="#FFFFFF" opacity="1.000000" stroke="none" 
	d="
M241.469360,376.277710 
	C241.740067,376.296936 241.792709,376.516693 241.845367,376.736481 
	C241.647354,376.650421 241.449326,376.564362 241.469360,376.277710 
z"/>
<path fill="#FFFFFF" opacity="1.000000" stroke="none" 
	d="
M235.662857,387.032166 
	C235.286758,387.332886 234.920105,387.376221 234.553436,387.419556 
	C234.556625,387.158630 234.559799,386.897736 234.562988,386.636810 
	C234.932755,386.682800 235.302521,386.728760 235.662857,387.032166 
z"/>
<path fill="#FFFFFF" opacity="1.000000" stroke="none" 
	d="
M241.350220,383.686218 
	C241.523071,383.825684 241.548721,384.083252 241.574371,384.340790 
	C241.450577,384.161957 241.326797,383.983124 241.350220,383.686218 
z"/>
<path fill="#C3E7EA" opacity="1.000000" stroke="none" 
	d="
M203.937592,373.143005 
	C203.431808,372.582367 202.828964,371.645660 202.226135,370.708923 
	C202.777161,370.921448 203.328201,371.134003 203.940369,371.676758 
	C203.947830,372.260284 203.894180,372.513580 203.937592,373.143005 
z"/>
<path fill="#C3E7EA" opacity="1.000000" stroke="none" 
	d="
M275.462341,372.362061 
	C274.869843,372.059631 274.510864,371.530212 274.151855,371.000793 
	C274.516693,370.802063 274.881531,370.603302 275.246338,370.404541 
	C275.396179,370.981354 275.546051,371.558228 275.462341,372.362061 
z"/>
</svg>